<svg width="80" height="80" viewBox="0 0 80 80" fill="none" xmlns="http://www.w3.org/2000/svg">
<rect width="80" height="80" rx="12" fill="url(#paint0_linear_7457_62161)"/>
<path d="M22 32C19.8783 32 17.8434 32.8429 16.3431 34.3431C14.8429 35.8434 14 37.8783 14 40V56C14 58.1217 14.8429 60.1566 16.3431 61.6569C17.8434 63.1571 19.8783 64 22 64H58C60.1217 64 62.1566 63.1571 63.6569 61.6569C65.1571 60.1566 66 58.1217 66 56V40C66 37.8783 65.1571 35.8434 63.6569 34.3431C62.1566 32.8429 60.1217 32 58 32H48C47.4696 32 46.9609 32.2107 46.5858 32.5858C46.2107 32.9609 46 33.4696 46 34C46 35.5913 45.3679 37.1174 44.2426 38.2426C43.1174 39.3679 41.5913 40 40 40C38.4087 40 36.8826 39.3679 35.7574 38.2426C34.6321 37.1174 34 35.5913 34 34C34 33.4696 33.7893 32.9609 33.4142 32.5858C33.0391 32.2107 32.5304 32 32 32H22Z" fill="white"/>
<path d="M14.0613 31C16.2516 29.0628 19.0759 27.9955 21.9999 28H57.9999C61.0426 28 63.8213 29.1333 65.9386 31C65.695 29.0665 64.754 27.2884 63.2923 25.9995C61.8306 24.7107 59.9487 23.9997 57.9999 24H21.9999C20.0512 23.9997 18.1693 24.7107 16.7076 25.9995C15.2459 27.2884 14.3049 29.0665 14.0613 31Z" fill="white" fill-opacity="0.6"/>
<path d="M14.0613 23C16.2516 21.0628 19.0759 19.9955 21.9999 20H57.9999C61.0426 20 63.8213 21.1333 65.9386 23C65.695 21.0665 64.754 19.2884 63.2923 17.9995C61.8306 16.7107 59.9487 15.9997 57.9999 16H21.9999C20.0512 15.9997 18.1693 16.7107 16.7076 17.9995C15.2459 19.2884 14.3049 21.0665 14.0613 23Z" fill="white" fill-opacity="0.2"/>
<defs>
<linearGradient id="paint0_linear_7457_62161" x1="80" y1="-4.76837e-06" x2="4.76837e-06" y2="80" gradientUnits="userSpaceOnUse">
<stop stop-color="#B9B8E1"/>
<stop offset="0.359375" stop-color="#ADA4F4"/>
<stop offset="0.703125" stop-color="#9394F6"/>
<stop offset="1" stop-color="#A9AAF8"/>
</linearGradient>
</defs>
</svg>
