<svg width="34" height="34" viewBox="0 0 34 34" fill="none" xmlns="http://www.w3.org/2000/svg">
<path d="M15.4224 23.491C15.6876 23.8092 16.1605 23.8522 16.4787 23.587C16.797 23.3219 16.8399 22.849 16.5748 22.5307L15.4224 23.491ZM10.9899 17.0004L10.4137 16.5203C10.182 16.7984 10.182 17.2024 10.4137 17.4806L10.9899 17.0004ZM16.5748 11.4701C16.8399 11.1519 16.797 10.679 16.4787 10.4138C16.1605 10.1486 15.6876 10.1916 15.4224 10.5098L16.5748 11.4701ZM23.0108 17.7504C23.425 17.7504 23.7608 17.4146 23.7608 17.0004C23.7608 16.5862 23.425 16.2504 23.0108 16.2504V17.7504ZM16.5748 22.5307L11.5661 16.5203L10.4137 17.4806L15.4224 23.491L16.5748 22.5307ZM11.5661 17.4806L16.5748 11.4701L15.4224 10.5098L10.4137 16.5203L11.5661 17.4806ZM10.9899 17.7504H23.0108V16.2504H10.9899V17.7504ZM7.91407 7.91407C12.9323 2.89583 21.0685 2.89583 26.0867 7.91407L27.1474 6.85341C21.5433 1.24938 12.4574 1.24938 6.85341 6.85341L7.91407 7.91407ZM26.0867 7.91407C31.1049 12.9323 31.1049 21.0685 26.0867 26.0867L27.1474 27.1474C32.7514 21.5433 32.7514 12.4574 27.1474 6.85341L26.0867 7.91407ZM26.0867 26.0867C21.0685 31.1049 12.9323 31.1049 7.91407 26.0867L6.85341 27.1474C12.4574 32.7514 21.5433 32.7514 27.1474 27.1474L26.0867 26.0867ZM7.91407 26.0867C2.89583 21.0685 2.89583 12.9323 7.91407 7.91407L6.85341 6.85341C1.24938 12.4574 1.24938 21.5433 6.85341 27.1474L7.91407 26.0867Z" fill="#5B5B5B"/>
</svg>
