<svg width="16" height="16" viewBox="0 0 16 16" fill="none" xmlns="http://www.w3.org/2000/svg">
<path d="M15 0.999971C14.7812 0.781254 14.4845 0.658386 14.1751 0.658386C13.8658 0.658386 13.5691 0.781254 13.3503 0.999971L7.99997 6.3503L2.64964 0.999971C2.43086 0.781254 2.13416 0.658386 1.8248 0.658386C1.51545 0.658386 1.21875 0.781254 0.999971 0.999971C0.781254 1.21875 0.658386 1.51545 0.658386 1.8248C0.658386 2.13416 0.781254 2.43086 0.999971 2.64964L6.3503 7.99997L0.999971 13.3503C0.781254 13.5691 0.658386 13.8658 0.658386 14.1751C0.658386 14.4845 0.781254 14.7812 0.999971 15C1.21875 15.2187 1.51545 15.3416 1.8248 15.3416C2.13416 15.3416 2.43086 15.2187 2.64964 15L7.99997 9.64964L13.3503 15C13.5691 15.2187 13.8658 15.3416 14.1751 15.3416C14.4845 15.3416 14.7812 15.2187 15 15C15.2187 14.7812 15.3416 14.4845 15.3416 14.1751C15.3416 13.8658 15.2187 13.5691 15 13.3503L9.64964 7.99997L15 2.64964C15.2187 2.43086 15.3416 2.13416 15.3416 1.8248C15.3416 1.51545 15.2187 1.21875 15 0.999971Z" fill="#898989"/>
</svg>
