<svg width="160" height="163" viewBox="0 0 160 163" fill="none" xmlns="http://www.w3.org/2000/svg">
	<path d="M155.631 44.0468C154.126 42.3524 152.302 40.9721 150.265 39.9849C148.228 38.9976 146.017 38.4227 143.759 38.293C141.5 38.1633 139.238 38.4813 137.102 39.2289C134.966 39.9765 132.998 41.139 131.31 42.65C131.31 42.65 127.522 46.0388 121.658 51.292C120.849 47.2117 118.584 43.568 115.287 41.0452C111.99 38.5224 107.888 37.2942 103.752 37.5913C106.666 35.1534 109.507 32.7771 112.155 30.5633C115.665 27.629 117.87 23.4159 118.284 18.8507C118.698 14.2855 117.288 9.7423 114.363 6.22046C111.439 2.69862 107.24 0.486663 102.69 0.0711875C98.1395 -0.344288 93.6113 1.07076 90.1011 4.00502C90.1011 4.00502 70.0823 20.7399 50.0614 37.5505C40.0374 45.9685 30.0134 54.4055 22.4958 60.7751C5.28674 75.3561 3.87972 76.548 3.87972 84.7826C3.8834 88.8259 5.30156 92.7396 7.88688 95.8413C10.4722 98.9429 14.0606 101.036 18.0264 101.754C1.09737 115.325 0 116.531 0 124.717C1.33452e-05 128.113 0.99716 131.433 2.86692 134.264C4.73669 137.095 7.3962 139.31 10.5134 140.634C13.6305 141.957 17.0672 142.33 20.3942 141.705C23.7212 141.081 26.7911 139.487 29.2206 137.122C31.3055 135.345 39.2236 128.985 49.9151 120.457C49.7723 121.63 49.7088 122.811 49.7251 123.993C49.725 127.478 50.7751 130.882 52.7375 133.757C54.6999 136.633 57.4829 138.846 60.7214 140.106C63.9598 141.367 67.5023 141.615 70.8841 140.819C74.2659 140.024 77.3289 138.221 79.6712 135.647C84.8168 130.692 127.79 92.112 154.239 68.4486C157.649 65.3979 159.711 61.1132 159.972 56.537C160.233 51.9607 158.671 47.4679 155.631 44.0468Z" fill="#F4F5F6"/>
	<path d="M127.243 27.5576H53.1025C49.9015 27.5576 47.3066 30.1525 47.3066 33.3535V131.276C47.3066 134.477 49.9015 137.072 53.1025 137.072H127.243C130.444 137.072 133.039 134.477 133.039 131.276V33.3535C133.039 30.1525 130.444 27.5576 127.243 27.5576Z" fill="#999999"/>
	<path d="M122.135 67.6013V134.121C122.101 135.093 121.875 136.049 121.471 136.934C121.067 137.819 120.493 138.615 119.78 139.278C119.068 139.94 118.232 140.456 117.32 140.794C116.408 141.133 115.439 141.289 114.467 141.252H37.825C35.8578 141.327 33.9413 140.618 32.4965 139.281C31.0516 137.944 30.1966 136.088 30.1191 134.121V40.5718C30.1965 38.6046 31.0516 36.7486 32.4965 35.4115C33.9415 34.0744 35.858 33.3656 37.8253 33.4406H63.8967L68.8042 40.0733L68.6126 50.5019L72.2165 57.5949L66.5801 73.6207L79.079 58.5532L75.3217 49.275L81.4179 40.0733L78.8874 33.4406H99.131L122.135 67.6013Z" fill="#CCCCCC"/>
	<path d="M122.133 67.5837H108.944C106.437 67.6771 103.996 66.7721 102.156 65.0673C100.316 63.3625 99.2269 60.9972 99.1289 58.4907V33.4488L122.133 67.5837Z" fill="#B3B3B3"/>
	<path d="M55.4919 89.7455C57.8605 89.7455 59.7806 87.8254 59.7806 85.4568C59.7806 83.0882 57.8605 81.168 55.4919 81.168C53.1233 81.168 51.2031 83.0882 51.2031 85.4568C51.2031 87.8254 53.1233 89.7455 55.4919 89.7455Z" fill="white"/>
	<path d="M96.6794 89.7455C99.048 89.7455 100.968 87.8254 100.968 85.4568C100.968 83.0882 99.048 81.168 96.6794 81.168C94.3108 81.168 92.3906 83.0882 92.3906 85.4568C92.3906 87.8254 94.3108 89.7455 96.6794 89.7455Z" fill="white"/>
	<path d="M57.4225 113.337C56.7205 113.338 56.0386 113.103 55.4862 112.67C54.9338 112.237 54.543 111.631 54.3765 110.949C54.21 110.267 54.2774 109.549 54.568 108.91C54.8586 108.271 55.3555 107.748 55.9788 107.425C61.8787 104.608 68.3281 103.129 74.8659 103.094C81.4038 103.059 87.8686 104.469 93.7982 107.223C94.5404 107.597 95.104 108.249 95.365 109.038C95.626 109.827 95.563 110.687 95.1898 111.429C94.8166 112.171 94.1639 112.735 93.3752 112.996C92.5865 113.257 91.7264 113.194 90.9841 112.821C85.928 110.544 80.4416 109.382 74.8968 109.412C69.3521 109.442 63.8786 110.664 58.8475 112.995C58.4061 113.22 57.9179 113.337 57.4225 113.337Z" fill="white"/>
	<path d="M16.915 19.9542C13.2302 19.0308 10.3522 16.1532 9.42823 12.468L9.27187 11.8393L9.11252 12.468C8.18972 16.1532 5.31299 19.0308 1.6278 19.9542L1 20.1121L1.6278 20.2697C5.31299 21.1918 8.18972 24.0692 9.11252 27.7556L9.27187 28.384L9.42823 27.7556C10.3522 24.0692 13.2302 21.1918 16.915 20.2697L17.5443 20.1121L16.915 19.9542Z" fill="#E6E6E6"/>
	<path d="M28.9725 149.243C22.959 147.736 18.2623 143.04 16.7544 137.026L16.4993 136L16.2392 137.026C14.7333 143.04 10.0386 147.736 4.02454 149.243L3 149.501L4.02454 149.758C10.0386 151.263 14.7333 155.958 16.2392 161.974L16.4993 163L16.7544 161.974C18.2623 155.958 22.959 151.263 28.9725 149.758L29.9995 149.501L28.9725 149.243Z" fill="#E6E6E6"/>
	<path d="M137.61 148.41C135.153 147.794 133.235 145.876 132.619 143.419L132.515 143L132.408 143.419C131.793 145.876 129.875 147.794 127.419 148.41L127 148.515L127.419 148.62C129.875 149.235 131.793 151.153 132.408 153.611L132.515 154.03L132.619 153.611C133.235 151.153 135.153 149.235 137.61 148.62L138.03 148.515L137.61 148.41Z" fill="#E6E6E6"/>
	<path d="M150.501 19.2649C146.816 18.3415 143.938 15.4639 143.014 11.7787L142.858 11.15L142.698 11.7787C141.776 15.4639 138.899 18.3415 135.214 19.2649L134.586 19.4228L135.214 19.5803C138.899 20.5025 141.776 23.3799 142.698 27.0663L142.858 27.6947L143.014 27.0663C143.938 23.3799 146.816 20.5025 150.501 19.5803L151.13 19.4228L150.501 19.2649Z" fill="#E6E6E6"/>
</svg>
