<svg xmlns="http://www.w3.org/2000/svg" viewBox="0 0 500 500"><g id="Layer_2" data-name="Layer 2"><circle cx="250" cy="250" r="250" style="fill:#3385ff"/><path d="M306.42,359.32a123,123,0,1,1,3.5-216.75l52-57.14A198.08,198.08,0,0,0,250,51C140.1,51,51,140.1,51,250s89.1,199,199,199a198.13,198.13,0,0,0,114.88-36.49Z" style="fill:#fff"/><path d="M373,250a122.43,122.43,0,0,1-13.78,56.6l57.4,52.22a199.06,199.06,0,0,0-2-220.61L361.07,197.1A122.43,122.43,0,0,1,373,250Z" style="fill:#fff"/></g><g id="Layer_3" data-name="Layer 3"><text transform="translate(166.78 290.15)" style="font-size:126.95320129394531px;fill:#fff;font-family:ChangaOne, Changa One">TM</text></g></svg>