<svg width="18" height="18" viewBox="0 0 18 18" fill="none" xmlns="http://www.w3.org/2000/svg">
<path d="M1.50085 8.83337C1.47835 8.83337 1.45506 8.83252 1.43172 8.83002C1.08839 8.79252 0.84089 8.48333 0.87839 8.14083C1.18089 5.37666 2.84921 2.99586 5.34087 1.77252C5.53504 1.67752 5.7642 1.68918 5.9467 1.80334C6.13003 1.91751 6.2417 2.11831 6.2417 2.33415V4.87585C6.2417 5.22085 5.9617 5.50085 5.6167 5.50085C5.2717 5.50085 4.9917 5.22085 4.9917 4.87585V3.42505C3.3892 4.54005 2.33834 6.2908 2.12168 8.27663C2.08668 8.5958 1.81501 8.83337 1.50085 8.83337ZM16.5675 9.1708C16.2275 9.13413 15.9167 9.38085 15.8792 9.72418C15.6617 11.71 14.6117 13.4609 13.0084 14.5759V13.125C13.0084 12.78 12.7284 12.5 12.3834 12.5C12.0384 12.5 11.7584 12.78 11.7584 13.125V15.6667C11.7584 15.8825 11.87 16.0833 12.0534 16.1975C12.1542 16.26 12.2684 16.2917 12.3834 16.2917C12.4775 16.2917 12.5717 16.2708 12.6592 16.2275C15.1509 15.005 16.8192 12.6242 17.1209 9.85917C17.1592 9.51667 16.9109 9.2083 16.5675 9.1708ZM8.37503 4.83333C8.37503 2.65083 10.1509 0.875 12.3334 0.875C14.5159 0.875 16.2917 2.65083 16.2917 4.83333C16.2917 7.01583 14.5159 8.79167 12.3334 8.79167C10.1509 8.79167 8.37503 7.01583 8.37503 4.83333ZM9.62503 4.83333C9.62503 6.32667 10.84 7.54167 12.3334 7.54167C13.8267 7.54167 15.0417 6.32667 15.0417 4.83333C15.0417 3.34 13.8267 2.125 12.3334 2.125C10.84 2.125 9.62503 3.34 9.62503 4.83333ZM9.62503 13.1667C9.62503 15.3492 7.8492 17.125 5.6667 17.125C3.4842 17.125 1.70837 15.3492 1.70837 13.1667C1.70837 10.9842 3.4842 9.20833 5.6667 9.20833C7.8492 9.20833 9.62503 10.9842 9.62503 13.1667ZM8.37503 13.1667C8.37503 11.6733 7.16003 10.4583 5.6667 10.4583C4.17337 10.4583 2.95837 11.6733 2.95837 13.1667C2.95837 14.66 4.17337 15.875 5.6667 15.875C7.16003 15.875 8.37503 14.66 8.37503 13.1667Z" fill="#1C1C1C"/>
</svg>
