<?xml version="1.0" encoding="UTF-8"?>
<svg width="163px" height="156px" viewBox="0 0 163 156" version="1.1" xmlns="http://www.w3.org/2000/svg" xmlns:xlink="http://www.w3.org/1999/xlink">
    <title>11</title>
    <defs>
        <path d="M52.5351513,25.097 L97.8911513,62.997 C100.544151,65.152 100.923151,69.081 98.6491513,71.743 L64.4101513,112.811 C62.2631513,115.473 58.3461513,115.853 55.6931513,113.572 L2.25115126,68.954 C-0.401848739,66.799 -0.780848739,62.87 1.49315126,60.208 L28.9091513,27.252 L52.5351513,25.097 Z" id="path-1"></path>
        <filter x="-38.4%" y="-30.6%" width="176.9%" height="185.6%" filterUnits="objectBoundingBox" id="filter-2">
            <feOffset dx="0" dy="11" in="SourceAlpha" result="shadowOffsetOuter1"></feOffset>
            <feGaussianBlur stdDeviation="11" in="shadowOffsetOuter1" result="shadowBlurOuter1"></feGaussianBlur>
            <feColorMatrix values="0 0 0 0 0.396078431   0 0 0 0 0.478431373   0 0 0 0 0.576470588  0 0 0 0.18 0" type="matrix" in="shadowBlurOuter1"></feColorMatrix>
        </filter>
        <path d="M108.503151,78.714 L104.713151,81.376 L59.1041513,113.698 C55.9461513,115.98 51.5241513,115.219 49.3761513,112.051 L3.89415126,47.406 C1.62015126,44.237 2.37815126,39.801 5.53615126,37.646 L45.2071513,9.633 L71.7381513,14.196 L106.229151,63.123 L110.272151,68.827 C112.420151,72.123 111.662151,76.433 108.503151,78.714 Z" id="path-3"></path>
        <filter x="-35.4%" y="-26.1%" width="170.7%" height="173.1%" filterUnits="objectBoundingBox" id="filter-4">
            <feOffset dx="0" dy="11" in="SourceAlpha" result="shadowOffsetOuter1"></feOffset>
            <feGaussianBlur stdDeviation="11" in="shadowOffsetOuter1" result="shadowBlurOuter1"></feGaussianBlur>
            <feColorMatrix values="0 0 0 0 0.396078431   0 0 0 0 0.478431373   0 0 0 0 0.576470588  0 0 0 0.18 0" type="matrix" in="shadowBlurOuter1"></feColorMatrix>
        </filter>
        <path d="M118.863151,42.97 L98.9011513,106.854 C97.7641513,110.529 93.8481513,112.684 90.1841513,111.417 L32.4461513,93.291 C28.7831513,92.15 26.7611513,88.221 27.8981513,84.418 L51.3971513,9.126 C52.5351513,5.45 56.4511513,3.296 60.1151513,4.563 L106.482151,19.013" id="path-5"></path>
        <filter x="-42.2%" y="-25.6%" width="184.4%" height="171.6%" filterUnits="objectBoundingBox" id="filter-6">
            <feOffset dx="0" dy="11" in="SourceAlpha" result="shadowOffsetOuter1"></feOffset>
            <feGaussianBlur stdDeviation="11" in="shadowOffsetOuter1" result="shadowBlurOuter1"></feGaussianBlur>
            <feColorMatrix values="0 0 0 0 0.396078431   0 0 0 0 0.478431373   0 0 0 0 0.576470588  0 0 0 0.18 0" type="matrix" in="shadowBlurOuter1"></feColorMatrix>
        </filter>
        <path d="M99.6591513,29.787 L99.6591513,101.15 C99.6591513,105.333 96.3741513,108.628 92.2051513,108.628 L27.6461513,108.628 C23.4761513,108.628 20.1921513,105.333 20.1921513,101.15 L20.1921513,16.858 C20.1921513,12.675 23.6031513,9.38 27.6461513,9.38 L79.3191513,9.38 L99.6591513,29.787 Z" id="path-7"></path>
        <filter x="-48.4%" y="-27.7%" width="196.9%" height="177.6%" filterUnits="objectBoundingBox" id="filter-8">
            <feOffset dx="0" dy="11" in="SourceAlpha" result="shadowOffsetOuter1"></feOffset>
            <feGaussianBlur stdDeviation="11" in="shadowOffsetOuter1" result="shadowBlurOuter1"></feGaussianBlur>
            <feColorMatrix values="0 0 0 0 0.396078431   0 0 0 0 0.478431373   0 0 0 0 0.576470588  0 0 0 0.18 0" type="matrix" in="shadowBlurOuter1"></feColorMatrix>
        </filter>
        <linearGradient x1="49.9419393%" y1="0.817982002%" x2="49.9419393%" y2="93.1512401%" id="linearGradient-9">
            <stop stop-color="#FF66A9" offset="0%"></stop>
            <stop stop-color="#F53689" offset="100%"></stop>
        </linearGradient>
        <linearGradient x1="50.0768661%" y1="-0.354892905%" x2="50.0768661%" y2="99.4986653%" id="linearGradient-10">
            <stop stop-color="#83A6FF" offset="0%"></stop>
            <stop stop-color="#5A78FF" offset="100%"></stop>
        </linearGradient>
        <linearGradient x1="49.4422454%" y1="0.322696307%" x2="49.4422454%" y2="96.9881678%" id="linearGradient-11">
            <stop stop-color="#83A6FF" offset="0%"></stop>
            <stop stop-color="#5A78FF" offset="100%"></stop>
        </linearGradient>
        <linearGradient x1="53.4765404%" y1="3.83314543%" x2="53.4765404%" y2="99.6054115%" id="linearGradient-12">
            <stop stop-color="#83A6FF" offset="0%"></stop>
            <stop stop-color="#5A78FF" offset="100%"></stop>
        </linearGradient>
        <linearGradient x1="52.5505717%" y1="-0.306748466%" x2="52.5505717%" y2="99.6932515%" id="linearGradient-13">
            <stop stop-color="#83A6FF" offset="0%"></stop>
            <stop stop-color="#5A78FF" offset="100%"></stop>
        </linearGradient>
        <linearGradient x1="49.352518%" y1="-3.29985653%" x2="49.352518%" y2="99.3185079%" id="linearGradient-14">
            <stop stop-color="#83A6FF" offset="0%"></stop>
            <stop stop-color="#5A78FF" offset="100%"></stop>
        </linearGradient>
        <linearGradient x1="47.8801583%" y1="4.22535211%" x2="47.8801583%" y2="99.0422535%" id="linearGradient-15">
            <stop stop-color="#83A6FF" offset="0%"></stop>
            <stop stop-color="#5A78FF" offset="100%"></stop>
        </linearGradient>
        <linearGradient x1="47.0064325%" y1="0.443786982%" x2="47.0064325%" y2="94.2800789%" id="linearGradient-16">
            <stop stop-color="#83A6FF" offset="0%"></stop>
            <stop stop-color="#5A78FF" offset="100%"></stop>
        </linearGradient>
        <linearGradient x1="47%" y1="3.3%" x2="47%" y2="91.3%" id="linearGradient-17">
            <stop stop-color="#83A6FF" offset="0%"></stop>
            <stop stop-color="#5A78FF" offset="100%"></stop>
        </linearGradient>
        <linearGradient x1="54.631829%" y1="4.7355959%" x2="54.631829%" y2="96.9218627%" id="linearGradient-18">
            <stop stop-color="#83A6FF" offset="0%"></stop>
            <stop stop-color="#5A78FF" offset="100%"></stop>
        </linearGradient>
        <linearGradient x1="49.9540921%" y1="2.43302092%" x2="49.9540921%" y2="103.528038%" id="linearGradient-19">
            <stop stop-color="#83A6FF" offset="0%"></stop>
            <stop stop-color="#5A78FF" offset="100%"></stop>
        </linearGradient>
        <linearGradient x1="27.9248145%" y1="27.8139854%" x2="72.2754472%" y2="72.1664135%" id="linearGradient-20">
            <stop stop-color="#4F6AFF" offset="0%"></stop>
            <stop stop-color="#657EFF" stop-opacity="0" offset="100%"></stop>
        </linearGradient>
        <linearGradient x1="76.8455283%" y1="84.9623607%" x2="38.3124895%" y2="33.8452273%" id="linearGradient-21">
            <stop stop-color="#C2D1FF" offset="1.13208%"></stop>
            <stop stop-color="#FFFFFF" offset="100%"></stop>
        </linearGradient>
    </defs>
    <g id="Confirm" stroke="none" stroke-width="1" fill="none" fill-rule="evenodd">
        <g id="Paypal--Choosebank-Copy-15" transform="translate(-874.000000, -376.000000)" fill-rule="nonzero">
            <g id="Group-5" transform="translate(376.000000, 179.000000)">
                <g id="11" transform="translate(519.999849, 204.000000)">
                    <path d="M61.6311513,117.121 C93.8671513,117.121 120.000151,90.902 120.000151,58.56 C120.000151,26.218 93.8671513,4.97379915e-14 61.6311513,4.97379915e-14 C29.3951513,4.97379915e-14 3.26215126,26.218 3.26215126,58.56 C3.26215126,90.902 29.3951513,117.121 61.6311513,117.121 Z" id="Path" fill="#EAEEF9"></path>
                    <g id="Path">
                        <use fill="black" fill-opacity="1" filter="url(#filter-2)" xlink:href="#path-1"></use>
                        <use fill="#FFFFFF" xlink:href="#path-1"></use>
                    </g>
                    <path d="M52.5341513,25.097 L44.3221513,35.111 C42.9331513,36.759 40.4061513,37.012 38.6371513,35.491 L28.7831513,27.252 L52.5341513,25.097 Z" id="Path" fill="#CED7E2"></path>
                    <g id="Path">
                        <use fill="black" fill-opacity="1" filter="url(#filter-4)" xlink:href="#path-3"></use>
                        <use fill="#FFFFFF" xlink:href="#path-3"></use>
                    </g>
                    <path d="M71.7381513,14.196 L59.9891513,22.689 C57.9671513,24.21 55.0611513,23.703 53.5451513,21.548 L45.2071513,9.633 L45.3331513,9.633 L71.7381513,14.196 Z" id="Path" fill="#CED7E2"></path>
                    <path d="M108.503151,78.714 L104.713151,81.376 L104.713151,63.123 L106.103151,63.123 L110.145151,68.827 C112.420151,72.123 111.662151,76.433 108.503151,78.714 Z" id="Path" fill="#CED7E2"></path>
                    <g id="Path">
                        <use fill="black" fill-opacity="1" filter="url(#filter-6)" xlink:href="#path-5"></use>
                        <use fill="#FFFFFF" xlink:href="#path-5"></use>
                    </g>
                    <path d="M109.766151,46.645 L101.302151,73.771 C100.796151,75.292 99.2801513,76.179 97.7641513,75.672 L46.5971513,59.574 C45.0801513,59.067 44.1961513,57.546 44.7011513,56.025 L53.1661513,28.9 C53.6721513,27.379 55.1881513,26.492 56.7041513,26.999 L107.871151,43.096 C109.387151,43.477 110.272151,45.124 109.766151,46.645 Z" id="Path" fill="#CED7E2" opacity="0.5"></path>
                    <path d="M118.863151,42.97 L104.966151,38.66 C102.565151,37.899 101.175151,35.364 101.933151,32.829 L106.229151,18.886 L106.355151,18.886 L118.863151,42.97 Z" id="Path" fill="#E6EDF5"></path>
                    <path d="M99.6591513,34.35 L84.2461513,32.829 C81.5931513,32.576 79.5711513,30.167 79.9501513,27.379 L81.5931513,11.915 L81.7191513,11.915 L99.6591513,34.35 Z" id="Path" fill="#CED7E2"></path>
                    <g id="Path">
                        <use fill="black" fill-opacity="1" filter="url(#filter-8)" xlink:href="#path-7"></use>
                        <use fill="#FFFFFF" xlink:href="#path-7"></use>
                    </g>
                    <path d="M99.6591513,29.787 L84.1191513,29.914 C81.3401513,29.914 79.1921513,27.759 79.1921513,24.971 L79.1921513,9.38 L79.3181513,9.38 L99.6591513,29.787 Z" id="Path" fill="#E1EAF2"></path>
                    <path d="M85.3831513,68.447 L36.2371513,68.447 C35.1001513,68.447 34.2151513,67.56 34.2151513,66.419 L34.2151513,38.026 C34.2151513,36.885 35.1001513,35.998 36.2371513,35.998 L85.3831513,35.998 C86.5201513,35.998 87.4041513,36.885 87.4041513,38.026 L87.4041513,66.292 C87.5311513,67.433 86.5201513,68.447 85.3831513,68.447 Z" id="Path" fill="#E6EDF5"></path>
                    <polygon id="Path" fill="#CED7E2" points="62.6421513 64.011 42.1751513 64.011 52.4081513 52.349"></polygon>
                    <polygon id="Path" fill="#FFFFFF" points="79.6981513 64.011 50.1341513 64.011 64.9161513 47.279"></polygon>
                    <path d="M49.8811513,48.166 C52.0451513,48.166 53.7981513,46.407 53.7981513,44.237 C53.7981513,42.067 52.0451513,40.308 49.8811513,40.308 C47.7181513,40.308 45.9651513,42.067 45.9651513,44.237 C45.9651513,46.407 47.7181513,48.166 49.8811513,48.166 Z" id="Path" fill="#CED7E2"></path>
                    <path d="M86.3941513,78.461 L35.7311513,78.461 C34.9731513,78.461 34.3421513,77.827 34.3421513,77.066 C34.3421513,76.306 34.9731513,75.672 35.7311513,75.672 L86.3941513,75.672 C87.1521513,75.672 87.7831513,76.306 87.7831513,77.066 C87.7831513,77.827 87.1521513,78.461 86.3941513,78.461 Z" id="Path" fill="#CED7E2"></path>
                    <path d="M86.3941513,86.319 L35.7311513,86.319 C34.9731513,86.319 34.3421513,85.686 34.3421513,84.925 C34.3421513,84.165 34.9731513,83.531 35.7311513,83.531 L86.3941513,83.531 C87.1521513,83.531 87.7831513,84.165 87.7831513,84.925 C87.7831513,85.686 87.1521513,86.319 86.3941513,86.319 Z" id="Path" fill="#CED7E2"></path>
                    <path d="M60.7471513,92.784 C60.7471513,93.544 60.1151513,94.178 59.3571513,94.178 L35.7311513,94.178 C34.9731513,94.178 34.3421513,93.544 34.3421513,92.784 C34.3421513,92.023 34.9731513,91.39 35.7311513,91.39 L59.3571513,91.39 C60.1151513,91.39 60.7471513,92.023 60.7471513,92.784 Z" id="Path" fill="#CED7E2"></path>
                    <path d="M61.7571513,20.788 L35.7311513,20.788 C34.9731513,20.788 34.3421513,20.154 34.3421513,19.393 C34.3421513,18.633 34.9731513,17.999 35.7311513,17.999 L61.7571513,17.999 C62.5151513,17.999 63.1471513,18.633 63.1471513,19.393 C63.1471513,20.154 62.5151513,20.788 61.7571513,20.788 Z" id="Path" fill="#CED7E2"></path>
                    <path d="M47.2281513,28.646 L35.7311513,28.646 C34.9731513,28.646 34.3421513,28.013 34.3421513,27.252 C34.3421513,26.492 34.9731513,25.858 35.7311513,25.858 L47.2281513,25.858 C47.9861513,25.858 48.6181513,26.492 48.6181513,27.252 C48.4921513,28.013 47.9861513,28.646 47.2281513,28.646 Z" id="Path" fill="#CED7E2"></path>
                    <path d="M71.1061513,114.205 C70.3481513,116.233 68.9591513,118.008 67.0641513,119.022 C60.2411513,122.571 52.7871513,115.853 54.9351513,108.628 L57.0831513,108.628 C54.5561513,116.867 64.2841513,120.797 68.3271513,115.346 C69.3381513,114.079 69.0851513,114.079 74.0121513,98.234 C75.2761513,94.051 71.2331513,91.897 68.3271513,93.418 C66.4321513,94.432 66.6851513,94.939 62.3891513,108.628 C62.2631513,108.882 62.2631513,109.135 62.2631513,109.135 C62.0101513,110.276 62.8941513,111.29 63.9051513,111.163 C65.0421513,111.163 65.1681513,109.642 65.5471513,108.628 C67.4431513,102.544 67.8221513,101.403 67.8221513,101.276 C68.3271513,100.136 70.2221513,100.516 69.7171513,102.164 C66.8111513,112.177 66.8111513,112.177 65.4211513,112.811 C62.2631513,114.459 59.2301513,110.783 60.2411513,108.628 C64.6631513,94.305 64.5371513,92.911 67.1901513,91.643 C71.3591513,89.488 75.7811513,92.023 76.2861513,96.08 C76.4131513,97.347 76.6651513,96.967 71.1061513,114.205 Z" id="Path" fill="url(#linearGradient-9)"></path>
                    <ellipse id="Oval" fill="#6382FF" cx="60.0001513" cy="55.5" rx="10" ry="13.5"></ellipse>
                    <path d="M75.9071513,54.758 C75.2761513,46.899 68.7061513,40.435 60.8731513,40.181 C57.4621513,40.054 54.1771513,40.942 51.5241513,42.716 C47.2281513,45.505 44.4491513,50.448 44.4491513,55.899 C44.4491513,61.095 46.9761513,65.785 50.8921513,68.701 C51.3971513,69.081 51.7761513,69.588 51.9031513,70.222 C52.1551513,71.236 53.1661513,72.377 54.5561513,72.377 C55.1881513,72.377 55.8191513,72.123 56.3251513,71.743 C56.5771513,71.489 56.9561513,71.489 57.2091513,71.616 C57.5881513,71.743 57.8411513,71.996 57.7141513,72.503 C57.7141513,72.63 57.7141513,72.63 57.7141513,72.63 C57.7141513,73.517 58.4721513,74.278 59.3571513,74.278 C60.2411513,74.278 60.9991513,73.517 60.9991513,72.63 C60.9991513,72.25 61.2521513,71.87 61.7571513,71.743 C70.2221513,70.729 76.5391513,63.377 75.9071513,54.758 Z" id="Path" fill="url(#linearGradient-10)"></path>
                    <path d="M53.6711513,77.32 C54.4391513,77.32 55.0611513,76.696 55.0611513,75.926 C55.0611513,75.156 54.4391513,74.531 53.6711513,74.531 C52.9041513,74.531 52.2821513,75.156 52.2821513,75.926 C52.2821513,76.696 52.9041513,77.32 53.6711513,77.32 Z" id="Path" fill="url(#linearGradient-11)"></path>
                    <path d="M54.0511513,84.418 C54.5391513,84.418 54.9351513,84.021 54.9351513,83.531 C54.9351513,83.041 54.5391513,82.644 54.0511513,82.644 C53.5621513,82.644 53.1661513,83.041 53.1661513,83.531 C53.1661513,84.021 53.5621513,84.418 54.0511513,84.418 Z" id="Path" fill="url(#linearGradient-12)"></path>
                    <path d="M59.7361513,78.968 C60.3641513,78.968 60.8731513,78.457 60.8731513,77.827 C60.8731513,77.197 60.3641513,76.686 59.7361513,76.686 C59.1081513,76.686 58.5991513,77.197 58.5991513,77.827 C58.5991513,78.457 59.1081513,78.968 59.7361513,78.968 Z" id="Path" fill="url(#linearGradient-13)"></path>
                    <path d="M66.1791513,75.545 C66.9471513,75.545 67.5691513,74.921 67.5691513,74.151 C67.5691513,73.381 66.9471513,72.757 66.1791513,72.757 C65.4121513,72.757 64.7891513,73.381 64.7891513,74.151 C64.7891513,74.921 65.4121513,75.545 66.1791513,75.545 Z" id="Path" fill="url(#linearGradient-14)"></path>
                    <path d="M64.0311513,85.559 C64.5201513,85.559 64.9161513,85.162 64.9161513,84.672 C64.9161513,84.182 64.5201513,83.784 64.0311513,83.784 C63.5431513,83.784 63.1471513,84.182 63.1471513,84.672 C63.1471513,85.162 63.5431513,85.559 64.0311513,85.559 Z" id="Path" fill="url(#linearGradient-15)"></path>
                    <path d="M59.1041513,88.601 C59.6621513,88.601 60.1151513,88.147 60.1151513,87.587 C60.1151513,87.027 59.6621513,86.573 59.1041513,86.573 C58.5461513,86.573 58.0941513,87.027 58.0941513,87.587 C58.0941513,88.147 58.5461513,88.601 59.1041513,88.601 Z" id="Path" fill="url(#linearGradient-16)"></path>
                    <path d="M60.2411513,97.854 C60.4511513,97.854 60.6201513,97.684 60.6201513,97.474 C60.6201513,97.264 60.4511513,97.094 60.2411513,97.094 C60.0321513,97.094 59.8621513,97.264 59.8621513,97.474 C59.8621513,97.684 60.0321513,97.854 60.2411513,97.854 Z" id="Path" fill="url(#linearGradient-17)"></path>
                    <path d="M57.7141513,93.164 C58.0631513,93.164 58.3461513,92.88 58.3461513,92.53 C58.3461513,92.18 58.0631513,91.897 57.7141513,91.897 C57.3661513,91.897 57.0831513,92.18 57.0831513,92.53 C57.0831513,92.88 57.3661513,93.164 57.7141513,93.164 Z" id="Path" fill="url(#linearGradient-18)"></path>
                    <path d="M51.5241513,42.589 C54.0511513,40.942 56.9561513,40.054 60.2411513,40.054 C68.9591513,40.054 76.0341513,47.152 76.0341513,55.899 C76.0341513,64.645 68.9591513,71.743 60.2411513,71.743 C51.5241513,71.743 44.4491513,64.645 44.4491513,55.899 C44.4491513,50.321 47.2281513,45.505 51.5241513,42.589 Z" id="Path" fill="url(#linearGradient-19)"></path>
                    <polygon id="Path" fill="url(#linearGradient-20)" points="74.8971513 61.602 65.9261513 52.603 62.8941513 51.462 59.6101513 50.195 54.5561513 54.758 59.8621513 60.081 59.1041513 63.757 65.9261513 70.602"></polygon>
                    <path d="M61.2521513,47.913 L65.9261513,52.603 C66.5581513,53.237 66.5581513,54.124 65.9261513,54.758 C65.2951513,55.391 64.4101513,55.391 63.7791513,54.758 L61.6311513,52.603 L61.6311513,62.743 C61.6311513,63.504 60.9991513,64.264 60.1151513,64.264 C59.3571513,64.264 58.5991513,63.63 58.5991513,62.743 L58.5991513,52.603 L56.4511513,54.758 C55.8191513,55.391 54.9351513,55.391 54.3031513,54.758 C54.0511513,54.504 53.9241513,54.124 53.9241513,53.744 C53.9241513,53.363 54.0511513,52.983 54.3031513,52.73 L58.9781513,48.04 C59.2301513,47.786 59.6091513,47.659 59.9891513,47.659 C60.3681513,47.659 60.9991513,47.659 61.2521513,47.913 Z" id="Path" fill="url(#linearGradient-21)"></path>
                </g>
            </g>
        </g>
    </g>
</svg>