<?xml version="1.0" encoding="UTF-8"?>
<svg width="12px" height="12px" viewBox="0 0 12 12" version="1.1" xmlns="http://www.w3.org/2000/svg" xmlns:xlink="http://www.w3.org/1999/xlink">
    <!-- Generator: Sketch 64 (93537) - https://sketch.com -->
    <title>Icon color</title>
    <desc>Created with Sketch.</desc>
    <g id="Page-1" stroke="none" stroke-width="1" fill="none" fill-rule="evenodd">
        <g id="Long-App-2-Copy-3" transform="translate(-134.000000, -489.000000)" fill="#93A2C2" fill-rule="nonzero">
            <g id="Group-7" transform="translate(8.500000, 332.000000)">
                <g id="Group-4">
                    <g id="Main-Copy">
                        <g id="Modal">
                            <g id="Background">
                                <g>
                                    <g id="Group" transform="translate(125.500000, 155.000000)">
                                        <g id="clear_circle_outlined" transform="translate(0.000000, 2.000000)">
                                            <path d="M6,0 C2.6862915,0 0,2.6862915 0,6 C0,9.3137085 2.6862915,12 6,12 C9.3137085,12 12,9.3137085 12,6 C12,4.40870106 11.367859,2.88257758 10.2426407,1.75735931 C9.11742242,0.632141042 7.59129894,0 6,0 Z M6,10.8 C3.3490332,10.8 1.2,8.6509668 1.2,6 C1.2,3.3490332 3.3490332,1.2 6,1.2 C8.6509668,1.2 10.8,3.3490332 10.8,6 C10.8,7.27303915 10.2942872,8.49393793 9.39411255,9.39411255 C8.49393793,10.2942872 7.27303915,10.8 6,10.8 Z M7.854,4.464 L7.536,4.146 C7.48156,4.08799366 7.40555155,4.05508881 7.326,4.05508881 C7.24644845,4.05508881 7.17044,4.08799366 7.116,4.146 L6,5.256 L4.884,4.146 C4.82956,4.08799366 4.75355155,4.05508881 4.674,4.05508881 C4.59444845,4.05508881 4.51844,4.08799366 4.464,4.146 L4.146,4.464 C4.08799366,4.51844 4.05508881,4.59444845 4.05508881,4.674 C4.05508881,4.75355155 4.08799366,4.82956 4.146,4.884 L5.256,6 L4.146,7.116 C4.08799366,7.17044 4.05508881,7.24644845 4.05508881,7.326 C4.05508881,7.40555155 4.08799366,7.48156 4.146,7.536 L4.464,7.854 C4.51844,7.91200634 4.59444845,7.94491119 4.674,7.94491119 C4.75355155,7.94491119 4.82956,7.91200634 4.884,7.854 L6,6.744 L7.116,7.854 C7.17044,7.91200634 7.24644845,7.94491119 7.326,7.94491119 C7.40555155,7.94491119 7.48156,7.91200634 7.536,7.854 L7.854,7.536 C7.91200634,7.48156 7.94491119,7.40555155 7.94491119,7.326 C7.94491119,7.24644845 7.91200634,7.17044 7.854,7.116 L6.744,6 L7.854,4.884 C7.91200634,4.82956 7.94491119,4.75355155 7.94491119,4.674 C7.94491119,4.59444845 7.91200634,4.51844 7.854,4.464 L7.854,4.464 Z" id="Icon-color"></path>
                                        </g>
                                    </g>
                                </g>
                            </g>
                        </g>
                    </g>
                </g>
            </g>
        </g>
    </g>
</svg>